<svg xmlns="http://www.w3.org/2000/svg" version="1.1" xmlns:xlink="http://www.w3.org/1999/xlink" viewBox="0 0 200 200"><rect width="200" height="200" fill="url('#gradient')"></rect><defs><linearGradient id="gradient" gradientTransform="rotate(153 0.5 0.5)"><stop offset="0%" stop-color="#697f83"></stop><stop offset="100%" stop-color="#060a10"></stop></linearGradient></defs><g><g fill="#e3f6e8" transform="matrix(2.0019550342130987,0,0,2.0019550342130987,8.744823248039125,110.8505182368781)" stroke="#498990" stroke-width="1.2"><path d="M8.41-3.78L8.41-3.78Q8.41-4.53 7.88-4.95Q7.34-5.37 6.01-5.82Q4.67-6.27 3.82-6.69L3.82-6.69Q1.05-8.05 1.05-10.42L1.05-10.42Q1.05-11.60 1.74-12.50Q2.43-13.41 3.69-13.91Q4.95-14.41 6.52-14.41L6.52-14.41Q8.06-14.41 9.27-13.87Q10.49-13.32 11.16-12.31Q11.84-11.30 11.84-10L11.84-10L8.42-10Q8.42-10.87 7.89-11.35Q7.35-11.83 6.45-11.83L6.45-11.83Q5.53-11.83 5.00-11.42Q4.46-11.02 4.46-10.39L4.46-10.39Q4.46-9.84 5.05-9.40Q5.63-8.96 7.11-8.48Q8.58-8.01 9.53-7.46L9.53-7.46Q11.84-6.13 11.84-3.80L11.84-3.80Q11.84-1.93 10.43-0.87Q9.02 0.20 6.57 0.20L6.57 0.20Q4.84 0.20 3.44-0.42Q2.04-1.04 1.33-2.12Q0.63-3.20 0.63-4.61L0.63-4.61L4.06-4.61Q4.06-3.47 4.65-2.92Q5.24-2.38 6.57-2.38L6.57-2.38Q7.42-2.38 7.92-2.75Q8.41-3.12 8.41-3.78ZM16.66-15L16.66-9.43Q17.71-10.76 19.36-10.76L19.36-10.76Q21.10-10.76 21.99-9.73Q22.88-8.69 22.90-6.67L22.90-6.67L22.90 0L19.60 0L19.60-6.59Q19.60-7.43 19.26-7.83Q18.92-8.22 18.10-8.22L18.10-8.22Q17.08-8.22 16.66-7.58L16.66-7.58L16.66 0L13.37 0L13.37-15L16.66-15ZM29.84 0.20L29.84 0.20Q27.41 0.20 25.91-1.25Q24.40-2.71 24.40-5.03L24.40-5.03L24.40-5.30Q24.40-6.92 25.00-8.16Q25.61-9.40 26.76-10.08Q27.91-10.76 29.49-10.76L29.49-10.76Q31.72-10.76 33.01-9.38Q34.30-8.00 34.30-5.53L34.30-5.53L34.30-4.25L27.75-4.25Q27.93-3.36 28.53-2.85Q29.12-2.34 30.07-2.34L30.07-2.34Q31.63-2.34 32.51-3.44L32.51-3.44L34.01-1.66Q33.40-0.81 32.27-0.31Q31.14 0.20 29.84 0.20ZM29.47-8.22L29.47-8.22Q28.03-8.22 27.75-6.31L27.75-6.31L31.07-6.31L31.07-6.56Q31.09-7.35 30.67-7.79Q30.25-8.22 29.47-8.22ZM35.56-10.57L38.64-10.57L38.75-9.33Q39.84-10.76 41.77-10.76L41.77-10.76Q43.42-10.76 44.23-9.78Q45.05-8.79 45.08-6.81L45.08-6.81L45.08 0L41.78 0L41.78-6.67Q41.78-7.47 41.46-7.85Q41.13-8.22 40.28-8.22L40.28-8.22Q39.32-8.22 38.85-7.46L38.85-7.46L38.85 0L35.56 0L35.56-10.57ZM46.92-10.57L50.01-10.57L50.12-9.33Q51.24-10.76 53.13-10.76L53.13-10.76Q55.14-10.76 55.84-9.17L55.84-9.17Q56.91-10.76 58.95-10.76L58.95-10.76Q62.16-10.76 62.25-6.88L62.25-6.88L62.25 0L58.95 0L58.95-6.67Q58.95-7.48 58.67-7.85Q58.40-8.22 57.68-8.22L57.68-8.22Q56.70-8.22 56.22-7.35L56.22-7.35L56.23-7.22L56.23 0L52.93 0L52.93-6.65Q52.93-7.48 52.67-7.85Q52.40-8.22 51.66-8.22L51.66-8.22Q50.71-8.22 50.21-7.35L50.21-7.35L50.21 0L46.92 0L46.92-10.57ZM67.60-10.57L67.60 0L64.30 0L64.30-10.57L67.60-10.57ZM64.10-13.29L64.10-13.29Q64.10-13.99 64.61-14.44Q65.12-14.89 65.93-14.89Q66.74-14.89 67.25-14.44Q67.75-13.99 67.75-13.29Q67.75-12.59 67.25-12.14Q66.74-11.69 65.93-11.69Q65.12-11.69 64.61-12.14Q64.10-12.59 64.10-13.29ZM69.56-10.57L72.65-10.57L72.75-9.33Q73.85-10.76 75.77-10.76L75.77-10.76Q77.42-10.76 78.24-9.78Q79.05-8.79 79.08-6.81L79.08-6.81L79.08 0L75.78 0L75.78-6.67Q75.78-7.47 75.46-7.85Q75.14-8.22 74.29-8.22L74.29-8.22Q73.32-8.22 72.85-7.46L72.85-7.46L72.85 0L69.56 0L69.56-10.57ZM80.52-5.24L80.52-5.36Q80.52-6.96 81.04-8.19Q81.57-9.42 82.56-10.09Q83.54-10.76 84.85-10.76L84.85-10.76Q86.50-10.76 87.43-9.65L87.43-9.65L87.55-10.57L90.54-10.57L90.54-0.40Q90.54 1.00 89.89 2.03Q89.24 3.06 88.01 3.61Q86.78 4.16 85.16 4.16L85.16 4.16Q83.99 4.16 82.91 3.72Q81.82 3.28 81.24 2.58L81.24 2.58L82.62 0.64Q83.54 1.73 85.04 1.73L85.04 1.73Q87.23 1.73 87.23-0.52L87.23-0.52L87.23-0.85Q86.28 0.20 84.83 0.20L84.83 0.20Q82.90 0.20 81.71-1.28Q80.52-2.76 80.52-5.24L80.52-5.24ZM83.82-5.16L83.82-5.16Q83.82-3.86 84.31-3.10Q84.79-2.34 85.67-2.34L85.67-2.34Q86.74-2.34 87.23-3.06L87.23-3.06L87.23-7.50Q86.75-8.22 85.69-8.22L85.69-8.22Q84.81-8.22 84.32-7.44Q83.82-6.65 83.82-5.16Z"></path></g></g></svg>